<?xml version="1.0" encoding="utf-8"?>
<!-- Generator: Adobe Illustrator 25.3.1, SVG Export Plug-In . SVG Version: 6.00 Build 0)  -->
<svg version="1.1" id="Layer_1" xmlns="http://www.w3.org/2000/svg" xmlns:xlink="http://www.w3.org/1999/xlink" x="0px" y="0px"
	 viewBox="0 0 75.5 65.6" style="enable-background:new 0 0 75.5 65.6;" xml:space="preserve">
<g id="Group_4">
	<path id="Path_6" d="M31.7,10.6c0.9-1.2,1.7-2.4,2.5-3.7c0.5-1,1-1.8,1.4-2.5c0.4-0.8,0.8-1.5,1.2-2.3c0-0.1,0-0.3-0.1-0.4
		c-0.1,0.1-0.3,0.2-0.4,0.4c-0.7,1-2,2.7-3.8,5.2s-3.8,5.2-6.1,8s-4.4,5.7-6.4,8.7c-2.2,3.3-2.7,4.9-2.6,5.7
		c2.9-4.1,5.8-7.9,8.4-11.3S30.6,12.1,31.7,10.6z"/>
	<path id="Path_7" d="M30,27.6c-0.1,0-0.3,0-0.5,0.2l0,0c-0.7,0.5-1,1.6-0.9,3.3c0,1.8-0.2,3.6-0.5,5.3c-0.2,1-0.6,2-1,2.9
		c-0.5,1.5-1.9,2.5-3.5,2.5h-0.4v-0.2c-0.3-0.1-0.7-0.2-1-0.3c-0.5-0.3-0.9-0.7-1.1-1.2c-0.4-1.2-0.6-2.4-0.4-3.6
		c0.2-2.2,0.5-4.2,0.7-5.9c-0.1-0.4-0.2-0.7-0.4-0.7s-0.4,0-1.2,1c-0.5,0.6-0.8,1.4-0.7,2.2c0.1,0.9,0.1,1.7-0.1,2.6
		c-0.1,0.8-0.3,1.7-0.6,2.9c-0.2,1.8-1.8,3.2-3.6,3.2h-0.4v-0.1c-0.4,0-0.8-0.2-1.2-0.3c-0.3-0.2-0.5-0.4-0.7-0.6
		c-0.2-0.2-0.3-0.4-0.4-0.6l-0.3-0.6c-0.1-0.2-0.3-0.5-0.5-0.7c-0.2-0.2-0.4-0.4-0.6-0.5c-0.2-0.1-0.4-0.2-0.6-0.2
		c-0.2,0-0.5,0.1-0.7,0.2C9.2,38.5,9,38.7,8.8,39c-0.2,0.4-0.4,0.8-0.6,1.2v0.1l0,0c-1,0.8-2.1,1.6-3.2,2.2
		c-1.6,0.9-2.9,2.3-3.7,3.9c-0.5,1.2-0.8,2.5-0.9,3.8C0.1,52,0,53.9,0,55.9c0,0.3,0,0.7,0,1s0,0.7,0,1c0,2.3,0.1,3.8,0.1,4.6
		c0,0.6,0.1,1.2,0.3,1.8c0,0.1,0.1,0.3,0.1,0.4c0.2-0.3,0.4-0.6,0.5-1c0.1-1,0.2-2.1,0.2-3s0-2.6,0.1-4.8s0.2-3.7,0.2-4.5
		c0.1-0.7,0.2-1.5,0.4-2.2c0.2-0.7,0.4-1.4,0.8-2.1c0.3-0.6,0.7-1.2,1.2-1.7c0.3-0.3,0.7-0.6,1.1-1c0.4-0.3,0.8-0.6,1.3-0.9
		c1-0.4,2-0.8,3-1h0.2l0.1,0.1c0.4,0.4,1,0.5,1.5,0.5c0.5-0.1,0.8-0.4,1-0.8l0.2-0.4l0.3,0.2c0.3,0.2,0.6,0.3,0.9,0.5
		c0.4,0.2,0.9,0.3,1.4,0.2h0.2c1.7,0.2,3.4-0.8,3.9-2.5l0.4-1.2l0.3,1.2c0.2,0.7,0.5,1.2,1.1,1.7c0.8,0.5,1.7,0.8,2.7,0.8h0.2
		c0.8,0,1.6-0.1,2.4-0.4c0.5-0.2,1-0.6,1.4-1c0.4-0.5,0.7-1.1,1-1.7c0.3-0.7,0.6-1.5,0.9-2.3c0.3-1.2,0.6-2.4,0.7-3.7
		c0.2-1.7,0.3-3.5,0.3-5.2C30.3,27.8,30,27.7,30,27.6z"/>
	<path id="Path_8" d="M35.5,20c0.4-0.4,0.9-0.7,1.4-1c0.8-0.5,1.7-1,2.5-1.4l2.2-1.4l-0.9,1.4c-0.6,0.8-1.1,1.6-1.5,2.5
		c0,0.1,0.1,0.2,0.2,0.3c0,0,0.1,0.1,0.6,0.1c0.7-0.2,1.4-0.5,2.1-0.9c1-0.6,2-1.3,2.9-2c0.7-0.5,1.3-1.1,1.7-1.8
		c0.2-0.7,0.1-0.8,0.1-0.8S46.4,14.8,46,15l-0.5,0.2c-1,1-2.1,1.9-3.2,2.6l-1,0.5l0.6-1c0.5-0.9,1-1.9,1.2-2.9c0-0.1,0-0.3-0.5-0.4
		c-0.1,0-0.7,0.2-2.6,1.7c-1.1,1-2.4,1.8-3.7,2.5c-1.1,0.6-1.4,0.9-1.5,1.1c-0.1,0.2-0.2,0.4-0.2,0.7c0,0.1,0.1,0.2,0.2,0.3
		c0.1,0.1,0.2,0.1,0.3,0.1C35.2,20.3,35.4,20.1,35.5,20z"/>
	<path id="Path_9" d="M42.3,39.2c0.7-1.7,1.2-4.8,1.3-9.4v-0.7c0.1-0.7-0.4-1.3-1-1.4c0,0,0,0,0,0h-0.3l-0.1,0.1
		c-0.2,2.8-0.3,4.7-0.4,5.7c-0.1,1.8-0.5,3.5-1,5.2c-0.4,1.4-1,2.8-1.9,4l0,0l0.1,0.1l0.6-0.2C40.9,41.8,41.8,40.6,42.3,39.2z"/>
	<path id="Path_10" d="M63.4,15.2c-2.2,2.7-4.4,5.7-6.4,8.7c-2.2,3.3-2.7,4.9-2.6,5.7c2.9-4.1,5.8-7.9,8.4-11.3s4.7-6.1,5.8-7.7
		c0.9-1.2,1.7-2.5,2.5-3.7c0.5-1,1-1.8,1.4-2.5C73,3.6,73.4,2.8,73.8,2c0-0.1,0-0.3-0.1-0.4c-0.1,0.1-0.3,0.2-0.4,0.4
		c-0.7,1-2,2.7-3.8,5.2S65.6,12.4,63.4,15.2z"/>
	<path id="Path_11" d="M69.5,40.9c0.8-0.5,1.6-1.1,2.3-1.8c0.7-0.7,1.2-1.5,1.7-2.3c0.5-0.8,0.6-1.9,0.3-2.8
		c-0.1-0.2-0.2-0.2-0.2-0.2s-0.2,0-0.6,0.8c-0.8,1.6-1.9,3-3.3,4.1c-1.3,1.1-2.8,1.9-4.5,2.4c-1.5,0.5-3.1,0.7-4.7,0.7h-0.3v0
		c-0.3-0.1-0.7-0.2-1-0.3c-0.5-0.3-0.9-0.7-1.1-1.2c-0.4-1.2-0.5-2.4-0.4-3.6c0.2-2.2,0.5-4.2,0.7-5.9c-0.1-0.4-0.3-0.7-0.4-0.7
		s-0.4,0-1.2,1c-0.5,0.6-0.8,1.4-0.7,2.2c0.1,0.9,0.1,1.7,0,2.6c-0.1,0.8-0.3,1.7-0.6,2.9c-0.6,1.5-1.1,2.4-1.8,2.7
		c-0.5,0.2-1,0.4-1.5,0.5v0.1h-0.4c-0.5-0.1-0.9-0.1-1.4,0c-0.4,0.1-0.7,0.2-1,0.5c-0.7,0.7-1.2,1.6-1.6,2.5
		c-0.5,1.1-1.2,2.1-2.2,2.9c-0.8,0.6-1.9,1.5-3.1,2.5c-0.9,0.8-0.9,1.1-0.9,1.1l0,0c0.4,0.1,0.9,0.1,1.3,0c3-1.4,4.8-2.7,5.4-3.9
		s1.2-2.3,1.6-3.1c0.3-0.7,0.9-1.2,1.7-1.3h0.4c2.2,0.1,3.5-0.7,4.1-2.5l0.4-1.2l0.3,1.2c0.2,0.7,0.5,1.2,1.1,1.7
		c0.8,0.5,1.7,0.8,2.7,0.8h0.2c1.8,0,3.7-0.2,5.5-0.7C67.3,42.1,68.5,41.6,69.5,40.9z"/>
	<path id="Path_12" d="M68.8,24.3c0.3,0.1,0.6,0.4,0.8,0.6c0.2,0.4,0.3,0.8,0.2,1.2c-0.1,0.4-0.2,0.7-0.4,1l0,0
		c-0.2,0.3-0.4,0.6-0.6,0.8c-0.2,0.3-0.5,0.5-0.7,0.9c-0.3,0.4-0.7,0.7-1.1,1c-0.2,0.2-0.3,0.4-0.4,0.6c0.3,0,0.5,0,0.8,0
		c0.4-0.2,0.9-0.5,1.2-0.8c0.5-0.4,1-0.9,1.4-1.4c0.3-0.4,0.6-0.9,0.8-1.5c0.2-0.5,0.2-1,0.2-1.5c0-0.5-0.1-0.9-0.4-1.3
		c-0.2-0.3-0.5-0.6-0.9-0.8c-0.4-0.2-0.8-0.3-1.2-0.2c-0.4,0-0.8,0.1-1.2,0.3c-0.2,0.1-0.5,0.3-0.6,0.4c-0.2,0.2-0.4,0.4-0.5,0.7
		c-0.2,0.3-0.3,0.5-0.4,0.8c-0.1,0.2-0.1,0.5-0.1,0.7c0,0.2,0,0.5,0.1,0.7c0.1-0.1,0.2-0.1,0.3-0.2c0.2-0.4,0.4-0.8,0.6-1.1
		c0.3-0.4,0.6-0.7,1.1-0.8C68,24.1,68.4,24.2,68.8,24.3z"/>
</g>
</svg>
