<?xml version="1.0" encoding="utf-8"?>
<!-- Generator: Adobe Illustrator 25.3.1, SVG Export Plug-In . SVG Version: 6.00 Build 0)  -->
<svg version="1.1" id="Layer_1" xmlns="http://www.w3.org/2000/svg" xmlns:xlink="http://www.w3.org/1999/xlink" x="0px" y="0px"
	 viewBox="0 0 105.4 38" style="enable-background:new 0 0 105.4 38;" xml:space="preserve">
<g>
	<path d="M27.5,2.2c0.4-0.2,0.8-0.3,1.2-0.1C29,2.3,29,2.5,29,2.7s-0.1,0.2,0.5,0.1c3.1-0.4,6.1-0.6,9.2-0.6c2-0.1,4.1,0.3,6,1
		C45.3,3.6,45,4,44.5,3.8c-1.8-0.7-3.8-1-5.8-0.9c-3,0-6,0.3-9,0.7c-0.7,0-1.3,0.4-1.5,1c-0.1,0.1-0.1,0.2-0.2,0.4
		c-1,1.6-2.8,4.3-5.4,8c-1.8,2.5-3.5,5.1-5.3,7.7s-3.3,5-4.5,7S11,31.1,11,31.6c0,0.5-0.7,0.7-0.7-0.1c0-0.7,0.6-2.1,1.9-4.3
		s2.8-4.6,4.6-7.4s3.6-5.4,5.3-8c2.3-3.4,3.9-5.8,4.9-7.4c0.3-0.5-0.5-0.3-0.9-0.2c0,0-0.1,0-0.1,0c-0.6,0-1.2,0.3-1.6,0.8l-0.2,0.2
		c-1.4,1.2-2.8,2.4-4.1,3.6c-0.4,0.3-0.7,0.7-1.1,1s-0.3,0.3-0.2,0.4c0,0,0.1,0.1,0.1,0.1c-0.1,0.4-0.5,0.7-1,0.6
		c-0.2,0-0.4-0.2-0.5-0.3c-0.2-0.4,0.9-1.4,1.3-1.9c0.1,0,0.1-0.1,0.1-0.1c1-1.1,2.2-2.1,3.3-3.1c0.6-0.6,0.5-0.8-0.3-0.6
		c-2.3,0.6-4.5,1.2-6.7,1.9c-1.1,0.3-2.4,0.9-4.1,1.6c-1.7,0.7-3.4,1.6-5,2.6c-1.4,0.9-2.7,2-3.6,3.4c-0.8,1.2-0.8,2.8-0.1,4.1
		c0.2,0.4,0.7,0.6,1.1,0.5c0.4,0,0.5,0,0.3,0.5c-0.2,0.5-0.8,0.7-1.3,0.5c0,0-0.1,0-0.1-0.1c-0.7-0.4-1.2-1.1-1.4-1.9
		c-0.3-1.2-0.1-2.4,0.4-3.5c0.9-1.8,2.3-3.2,4-4.3C8.5,8.5,11.7,7,15,6c3-1,6-1.8,9-2.4c0,0,0.1,0,0.1,0c0.6-0.1,1.3-0.3,1.8-0.7
		C26.4,2.6,26.9,2.4,27.5,2.2z M27.3,3.1c0.1,0,0.3-0.1,0.3-0.1S27,3.1,26.9,3.1C26.6,3.3,27.2,3.1,27.3,3.1z"/>
	<path d="M24.6,20.4c0.1-0.1,0.2-0.2,0.5-0.5l9-14.4c2.7-1.8,1.1,2.6,0.7,3.6c-0.8,1.7-1.9,3.4-3,4.9c-1.1,1.5-2.4,2.9-3.6,4.2
		c-1.2,1.2-2,2.1-2.5,2.5l-1.1,1.6c-0.6,0.9-0.3,0.7,0.5-0.1c1-0.9,2-1.9,3.2-2.9c1-0.9,2.1-1.7,3.2-2.5c0.7-0.5,1.5-0.8,2.3-0.9
		c0.7,0.2,0.9,1,0.5,2.5c-0.6,2.3-0.5,3.5,0.1,3.6c0.8,0.2,2.1-0.3,4.1-1.5c0.4-0.2,0.7,0.2,0.2,0.6c-2.1,1.3-3.6,2-4.6,1.7
		s-1.3-1.9-0.5-4.8c0.2-1,0.1-1.4-0.4-1.3c-0.7,0.3-1.4,0.7-2,1.3c-0.9,0.7-1.9,1.6-2.9,2.5s-2.2,2-3.1,2.7s-1.5,1-1.8,0.8
		c-0.6-0.4,0.1-1.6,0.5-2.2c0.1-0.1,0.1-0.2,0.1-0.2l0.4-0.7c0.1-0.2,0.2-0.4,0.2-0.6C24.4,20.6,24.5,20.5,24.6,20.4L24.6,20.4z
		 M30.1,14.5c1.2-1.4,2.3-3,3.2-4.6c2.6-5-1.4,1-3,3.6c-0.3,0.5-0.5,0.8-0.6,1C28.1,16.8,28.2,16.8,30.1,14.5z"/>
	<path d="M48.1,20.9c-0.6,0.3-1.2,0.6-1.8,0.8c-0.6,0.2-1.3,0.3-2,0.2c-0.6-0.1-0.9-0.6-0.9-1.4v-0.1c0-0.4,0-0.3-0.3-0.1
		c-1.3,0.9-2.7,1.7-4.2,2.3c-0.9,0.3-1.4,0.3-1.5,0s0-1,0.7-1.8c0.8-0.9,1.7-1.7,2.6-2.4c0.9-0.7,2-1.1,3.1-1.3
		c0.9-0.2,1.8,0.3,2.1,1.2c0,0.2-0.1,0.5-0.4,0.5c-0.3,0-0.6-0.1-0.7-0.4c0-0.1,0-0.1,0-0.1s0.1-0.1,0-0.1c-0.3-0.4-0.8-0.5-1.6-0.2
		c-0.8,0.3-1.6,0.8-2.4,1.4c-0.7,0.5-1.5,1.1-2.1,1.8c-0.6,0.5-0.9,0.9-0.8,1s0.5-0.1,1.5-0.6s2.4-1.5,4.5-3
		c0.2-0.1,0.5-0.1,0.6,0.1c0.1,0.1,0.1,0.3,0,0.5c-0.5,1-0.5,1.6-0.2,1.9c0.5,0.2,1.1,0.2,1.6,0c0.6-0.2,1.2-0.4,1.8-0.7
		C48.5,20,48.7,20.5,48.1,20.9z"/>
	<path d="M47.6,20.8l1.4-2.5c0.3-0.4,0.5-0.8,0.7-1.1c-0.1-0.2-0.1-0.4,0-0.6c0.2-0.2,0.4-0.4,0.7-0.6l0,0c0.1,0,0.2,0,0.3,0
		c0.2,0,0.3,0.2,0.4,0.4v0.1c0,0.1,0,0.2-0.1,0.3c-0.5,0.7-1,1.6-1.5,2.5s-1,1.8-1.5,2.5c0.3-0.3,0.8-0.7,1.4-1.2s1.3-1,2-1.5
		c0.4-0.3,0.9-0.6,1.4-0.7c0.4,0,0.7,0.2,0.8,0.5c0.1,0.4,0.1,0.7,0,1.1c-0.1,0.9-0.1,1.7,1.5,0.6c0.5-0.3,0.5,0.2,0.2,0.5
		c-1.1,0.7-1.8,0.8-2.2,0.4c-0.4-0.7-0.5-1.5-0.3-2.2c-1.1,0.5-2,1.2-2.8,2.1c-0.8,0.8-1.7,1.5-2.7,2.1c-0.5,0.2-0.9,0-0.8-0.5
		C46.8,22.2,47.2,21.5,47.6,20.8z"/>
	<path d="M51.6,26.1c0.1-0.1,1.2-2,3.4-5.5c0-0.1,0.1-0.3,0.2-0.4c1.5-2.4,3.1-5,4.8-7.6s3.3-5,4.7-7C65.6,4.2,66.5,3,67.6,2
		c2.1-0.6,0.4,2.8,0.2,3.3c-1.3,2.5-2.8,4.9-4.5,7.1c-2.2,2.9-4.6,5.7-7.2,8.2c-0.4,0.6-0.8,1.2-1.1,1.7c-1.3,1.9-1.8,2.7,1.8-0.6
		c3.4-3.1,5.8-5,7.4-5.5c0.5-0.1,0.6,0.2,0.7,0.5c0,0,0,0.1,0,0.1c0.1,0.4-0.3,0.8-1,1.3c-0.7,0.5-1.5,0.9-2.3,1.2
		c-0.4,0.2-0.7,0.3-1.1,0.5c-0.4,0.3-0.6,0.7-0.7,1.1c-0.5,1.4-1.5,4.3,1,4.1c0.4,0,0.7,0.4,0,0.5c-1.2,0-2-0.3-2.4-0.9
		C58,24,58,23.1,58.3,22.3c0.2-0.8,0.2-0.8-0.5-0.2c-0.9,0.8-1.8,1.6-2.8,2.5l-2.3,2c-0.1,0.1-0.3,0.2-0.4,0.4
		C51.9,27.3,51.3,26.6,51.6,26.1z M58.6,16.6c0,0.2,0.3-0.2,1-1c1.6-1.8,3-3.8,4.4-5.8c1-1.5,2-3.1,2.8-4.8c1.3-2.6,0.2-1.1-0.5,0
		L66,5.4c-1.9,2.6-4,5.8-6.5,9.7C59,16,58.6,16.5,58.6,16.6L58.6,16.6z"/>
	<path d="M73.6,16.7c-0.6,0.3-1,0.7-1.4,1.3c-0.5,0.7-0.9,1.5-1.2,2.3c-0.3,0.6-0.5,1.3-0.6,1.9c0,0.9,0.1,1.4,0.5,1.3
		c0.8-0.2,1.4-0.6,2-1.2c1-0.8,2-1.6,3.2-2.7s2.3-1.9,3.3-2.7c0.7-0.6,1.5-1.1,2.3-1.4c0.7,0.1,1,0.3,1,0.6c0,0.4-0.2,0.8-0.4,1.2
		l-0.1,0.2c-0.5,1-1.1,1.9-1.7,2.7c-0.3,0.4-0.5,0.8-0.8,1.1s-0.6,1-0.9,1.5s-0.4,0.7-0.6,1l-0.1,0.2c-0.2,0.3-0.4,0.6-0.3,0.8
		c0,0.2,0,0.4-0.2,0.5c-0.5,0.3-0.9,0.8-1.1,1.3c-0.1,0.2-0.3,0.5-0.4,0.7c-0.1,0.2-0.3,0.6-0.6,1c-0.5,1-1.2,2.1-2.1,3.4
		c-0.7,1.2-1.6,2.4-2.5,3.5c-0.8,1-1.5,1.4-2,1.3c-0.8-0.2-0.3-1.5,0-2c0,0,0-0.1,0-0.1c0.7-1.7,1.7-3.3,2.9-4.7
		c1.2-1.5,2.4-2.8,3.9-4c0.4-0.4,0.8-0.8,1.1-1.3l0.1-0.2l3.6-5.9c2-3.2-0.1-1.5-2.8,0.9c-1.2,1-2.4,2-3.6,3
		c-0.8,0.7-1.8,1.3-2.9,1.7c-1.1,0.2-1.9-0.4-1.8-2.4c0.2-1.3,0.6-2.5,1.3-3.6c0.7-1.1,1.5-2.2,2.4-3.1C74,14.7,74.8,16.4,73.6,16.7
		z M71.4,33.2c0.6-0.9,3.3-4.8,2.9-4.7c-1.6,1.9-3.1,4-4.3,6.1c-1.2,3,1.1-0.8,1.4-1.3C71.4,33.3,71.4,33.2,71.4,33.2z"/>
	<path d="M84.6,24.1c-0.8-0.2-1.1-0.9-1.1-2s0.8-2.5,2.3-4.2c0.4-0.5,0.8-0.8,1.4-1.1c0.6-0.2,0.9,0,0.7,0.7c-0.5,0.5-0.8,0.6-1,0.6
		c-0.1,0-0.2,0-0.3,0.1c-3.6,4.1-2.2,5.9-0.7,5.1c0.7-0.5,1.2-1.2,1.6-2l0.1-0.1c0.1-0.1,0.1-0.2,0-0.3c-0.5-0.5-0.8-1.2-0.7-1.9
		c0.3-0.6,1.7-0.2,1.7,1.3c0.1,1.1,1.3,1.1,1.9,0.6s0.6,0.2-0.3,0.7c-0.5,0.3-1.1,0.3-1.6,0c-0.2-0.1-0.3-0.2-0.5,0.1
		c-0.3,0.5-0.6,1-1,1.5C86.6,23.9,85.6,24.3,84.6,24.1z"/>
	<path d="M92.3,19.4c-0.1,0-0.2,0-0.2,0.1c-0.6,0.8-1.9,3.2-0.7,3.2c1.2-0.2,2.3-0.7,3.2-1.4c1.2-0.8,2.2-1.6,3.1-2.3
		c0.2-0.1,0.3-0.2,0.4-0.3c0.6-0.6,1.9-1.4,2.3-0.8c0,0.4-0.1,0.7-0.2,1.1c-0.8,3.2,1.4,2.5,3.6,1.5c0.7-0.4,0.7,0.2,0.2,0.5
		c-2.5,1.3-5.4,1.7-5-1.2c0.1-0.9,0-0.9-0.7-0.2h-0.1c-0.1,0.1-0.2,0.2-0.3,0.3c-0.9,0.8-1.9,1.6-3,2.2c-1,0.7-2.2,1.1-3.4,1.3
		c-0.3,0-0.7,0-1-0.2c-1.4-0.9,0.1-3.2,0.8-4.4c0.1-0.1,0.1-0.2,0.2-0.3c0.2-0.3,0.6-0.5,1-0.5c0.4,0,0.7,0.3-0.1,1.3
		C92.4,19.4,92.4,19.4,92.3,19.4z"/>
</g>
</svg>
